{"glyphs":{"0":{"ha":735,"x_min":0,"x_max":653,"o":"m 163 490 l 163 572 l 408 572 l 408 490 l 163 490 m 81 572 l 81 653 l 163 653 l 163 572 l 81 572 m 408 572 l 408 653 l 490 653 l 490 572 l 408 572 m 490 653 l 490 817 l 572 817 l 572 653 l 490 653 m 0 653 l 0 1062 l 81 1062 l 81 653 l 0 653 m 81 1062 l 81 1225 l 163 1225 l 163 1062 l 81 1062 m 572 817 l 572 1225 l 653 1225 l 653 817 l 572 817 m 163 1225 l 163 1307 l 245 1307 l 245 1225 l 163 1225 m 490 1225 l 490 1307 l 572 1307 l 572 1225 l 490 1225 m 245 1307 l 245 1389 l 490 1389 l 490 1307 l 245 1307 z "},"1":{"ha":572,"x_min":0,"x_max":490,"o":"m 0 490 l 0 572 l 81 572 l 81 490 l 0 490 m 81 572 l 81 735 l 163 735 l 163 572 l 81 572 m 163 735 l 163 899 l 245 899 l 245 735 l 163 735 m 0 899 l 0 980 l 81 980 l 81 899 l 0 899 m 81 980 l 81 1062 l 163 1062 l 163 980 l 81 980 m 245 899 l 245 1062 l 327 1062 l 327 899 l 245 899 m 163 1062 l 163 1144 l 245 1144 l 245 1062 l 163 1062 m 327 1062 l 327 1144 l 245 1144 l 245 1225 l 327 1225 l 327 1307 l 408 1307 l 408 1389 l 490 1389 l 490 1225 l 408 1225 l 408 1062 l 327 1062 z "},"2":{"ha":735,"x_min":0,"x_max":653,"o":"m 81 490 l 81 572 l 245 572 l 245 490 l 81 490 m 327 490 l 327 572 l 572 572 l 572 490 l 327 490 m 0 572 l 0 653 l 81 653 l 81 572 l 0 572 m 245 572 l 245 653 l 327 653 l 327 572 l 245 572 m 572 572 l 572 653 l 653 653 l 653 572 l 572 572 m 81 653 l 81 735 l 245 735 l 245 653 l 81 653 m 327 653 l 327 735 l 408 735 l 408 653 l 327 653 m 408 735 l 408 817 l 490 817 l 490 735 l 408 735 m 490 817 l 490 980 l 572 980 l 572 817 l 490 817 m 163 980 l 163 1062 l 327 1062 l 327 980 l 163 980 m 81 1062 l 81 1225 l 163 1225 l 163 1062 l 81 1062 m 572 980 l 572 1225 l 653 1225 l 653 980 l 572 980 m 163 1225 l 163 1307 l 245 1307 l 245 1225 l 163 1225 m 490 1225 l 490 1307 l 572 1307 l 572 1225 l 490 1225 m 245 1307 l 245 1389 l 490 1389 l 490 1307 l 245 1307 z "},"3":{"ha":735,"x_min":0,"x_max":653,"o":"m 163 490 l 163 572 l 490 572 l 490 490 l 163 490 m 81 572 l 81 653 l 163 653 l 163 572 l 81 572 m 490 572 l 490 653 l 572 653 l 572 572 l 490 572 m 0 653 l 0 899 l 81 899 l 81 653 l 0 653 m 245 817 l 245 899 l 327 899 l 327 817 l 245 817 m 81 899 l 81 980 l 245 980 l 245 899 l 81 899 m 572 653 l 572 980 l 653 980 l 653 653 l 572 653 m 490 980 l 490 1062 l 572 1062 l 572 980 l 490 980 m 408 1062 l 408 1144 l 490 1144 l 490 1062 l 408 1062 m 163 1144 l 163 1307 l 245 1307 l 245 1144 l 163 1144 m 490 1144 l 490 1307 l 572 1307 l 572 1144 l 490 1144 m 245 1307 l 245 1389 l 490 1389 l 490 1307 l 245 1307 z "},"4":{"ha":899,"x_min":0,"x_max":817,"o":"m 327 490 l 327 572 l 408 572 l 408 490 l 327 490 m 408 572 l 408 735 l 0 735 l 0 817 l 81 817 l 81 899 l 163 899 l 163 817 l 490 817 l 490 899 l 572 899 l 572 817 l 735 817 l 735 735 l 490 735 l 490 572 l 408 572 m 735 817 l 735 899 l 817 899 l 817 817 l 735 817 m 163 899 l 163 980 l 245 980 l 245 899 l 163 899 m 245 980 l 245 1062 l 327 1062 l 327 980 l 245 980 m 572 899 l 572 1062 l 653 1062 l 653 899 l 572 899 m 327 1062 l 327 1144 l 408 1144 l 408 1062 l 327 1062 m 408 1144 l 408 1225 l 490 1225 l 490 1144 l 408 1144 m 653 1062 l 653 1225 l 735 1225 l 735 1062 l 653 1062 m 490 1225 l 490 1307 l 572 1307 l 572 1225 l 490 1225 m 735 1225 l 735 1307 l 572 1307 l 572 1389 l 817 1389 l 817 1225 l 735 1225 z "},"5":{"ha":735,"x_min":0,"x_max":653,"o":"m 81 490 l 81 572 l 490 572 l 490 490 l 81 490 m 490 572 l 490 653 l 572 653 l 572 572 l 490 572 m 0 572 l 0 735 l 81 735 l 81 572 l 0 572 m 0 899 l 0 980 l 81 980 l 81 899 l 0 899 m 572 653 l 572 980 l 653 980 l 653 653 l 572 653 m 490 980 l 490 1062 l 572 1062 l 572 980 l 490 980 m 81 980 l 81 1144 l 163 1144 l 163 1062 l 245 1062 l 245 980 l 81 980 m 245 1062 l 245 1144 l 490 1144 l 490 1062 l 245 1062 m 163 1144 l 163 1307 l 245 1307 l 245 1144 l 163 1144 m 245 1307 l 245 1389 l 653 1389 l 653 1307 l 245 1307 z "},"6":{"ha":735,"x_min":0,"x_max":653,"o":"m 163 490 l 163 572 l 490 572 l 490 490 l 163 490 m 81 572 l 81 653 l 163 653 l 163 572 l 81 572 m 490 572 l 490 653 l 572 653 l 572 572 l 490 572 m 572 653 l 572 980 l 653 980 l 653 653 l 572 653 m 490 980 l 490 1062 l 572 1062 l 572 980 l 490 980 m 0 653 l 0 980 l 81 980 l 81 1144 l 163 1144 l 163 1062 l 245 1062 l 245 980 l 163 980 l 163 899 l 81 899 l 81 653 l 0 653 m 245 1062 l 245 1144 l 490 1144 l 490 1062 l 245 1062 m 163 1144 l 163 1225 l 245 1225 l 245 1144 l 163 1144 m 245 1225 l 245 1307 l 408 1307 l 408 1225 l 245 1225 m 408 1307 l 408 1389 l 572 1389 l 572 1307 l 408 1307 z "},"7":{"ha":817,"x_min":0,"x_max":735,"o":"m 245 490 l 245 735 l 327 735 l 327 490 l 245 490 m 327 735 l 327 899 l 408 899 l 408 735 l 327 735 m 408 899 l 408 1062 l 490 1062 l 490 899 l 408 899 m 0 1062 l 0 1144 l 81 1144 l 81 1062 l 0 1062 m 490 1062 l 490 1225 l 572 1225 l 572 1062 l 490 1062 m 81 1144 l 81 1307 l 163 1307 l 163 1144 l 81 1144 m 572 1225 l 572 1307 l 163 1307 l 163 1389 l 735 1389 l 735 1307 l 653 1307 l 653 1225 l 572 1225 z "},"8":{"ha":735,"x_min":0,"x_max":653,"o":"m 163 490 l 163 572 l 490 572 l 490 490 l 163 490 m 81 572 l 81 653 l 163 653 l 163 572 l 81 572 m 490 572 l 490 653 l 572 653 l 572 572 l 490 572 m 0 653 l 0 899 l 81 899 l 81 653 l 0 653 m 81 899 l 81 980 l 163 980 l 163 899 l 81 899 m 572 653 l 572 980 l 653 980 l 653 653 l 572 653 m 163 980 l 163 1062 l 245 1062 l 245 980 l 163 980 m 490 980 l 490 1062 l 572 1062 l 572 980 l 490 980 m 245 1062 l 245 1144 l 490 1144 l 490 1062 l 245 1062 m 163 1144 l 163 1307 l 245 1307 l 245 1144 l 163 1144 m 490 1144 l 490 1307 l 572 1307 l 572 1144 l 490 1144 m 245 1307 l 245 1389 l 490 1389 l 490 1307 l 245 1307 z "},"9":{"ha":735,"x_min":0,"x_max":653,"o":"m 81 490 l 81 572 l 245 572 l 245 490 l 81 490 m 245 572 l 245 653 l 408 653 l 408 572 l 245 572 m 408 653 l 408 735 l 490 735 l 490 653 l 408 653 m 163 735 l 163 817 l 408 817 l 408 735 l 163 735 m 81 817 l 81 899 l 163 899 l 163 817 l 81 817 m 0 899 l 0 1225 l 81 1225 l 81 899 l 0 899 m 490 735 l 490 817 l 408 817 l 408 899 l 490 899 l 490 980 l 572 980 l 572 1225 l 653 1225 l 653 899 l 572 899 l 572 735 l 490 735 m 81 1225 l 81 1307 l 163 1307 l 163 1225 l 81 1225 m 490 1225 l 490 1307 l 572 1307 l 572 1225 l 490 1225 m 163 1307 l 163 1389 l 490 1389 l 490 1307 l 163 1307 z "}," ":{"ha":408,"x_min":0,"x_max":0,"o":""},"!":{"ha":490,"x_min":81,"x_max":408,"o":"m 81 490 l 81 653 l 163 653 l 163 490 l 81 490 m 163 735 l 163 980 l 245 980 l 245 735 l 163 735 m 245 980 l 245 1225 l 327 1225 l 327 980 l 245 980 m 327 1225 l 327 1470 l 408 1470 l 408 1225 l 327 1225 z "},"\"":{"ha":408,"x_min":81,"x_max":408,"o":"m 81 1225 l 81 1307 l 163 1307 l 163 1225 l 81 1225 m 245 1225 l 245 1307 l 327 1307 l 327 1225 l 245 1225 m 163 1307 l 163 1470 l 245 1470 l 245 1307 l 163 1307 m 327 1307 l 327 1470 l 408 1470 l 408 1307 l 327 1307 z "},"#":{"ha":735,"x_min":81,"x_max":735,"o":"m 490 1062 l 490 1225 l 327 1225 l 327 1062 l 490 1062 m 163 817 l 163 980 l 81 980 l 81 1062 l 245 1062 l 245 1225 l 163 1225 l 163 1307 l 327 1307 l 327 1470 l 408 1470 l 408 1307 l 572 1307 l 572 1470 l 653 1470 l 653 1307 l 735 1307 l 735 1225 l 572 1225 l 572 1062 l 653 1062 l 653 980 l 490 980 l 490 817 l 408 817 l 408 980 l 245 980 l 245 817 l 163 817 z "},"$":{"ha":572,"x_min":81,"x_max":490,"o":"m 163 327 l 163 408 l 245 408 l 245 327 l 163 327 m 81 653 l 81 735 l 163 735 l 163 653 l 81 653 m 408 653 l 408 817 l 490 817 l 490 653 l 408 653 m 81 1062 l 81 1225 l 163 1225 l 163 1062 l 81 1062 m 408 1144 l 408 1225 l 490 1225 l 490 1144 l 408 1144 m 245 408 l 245 572 l 163 572 l 163 653 l 245 653 l 245 980 l 163 980 l 163 1062 l 245 1062 l 245 1225 l 163 1225 l 163 1307 l 245 1307 l 245 1470 l 327 1470 l 327 1307 l 408 1307 l 408 1225 l 327 1225 l 327 899 l 408 899 l 408 817 l 327 817 l 327 653 l 408 653 l 408 572 l 327 572 l 327 408 l 245 408 z "},"%":{"ha":817,"x_min":81,"x_max":735,"o":"m 245 408 l 245 490 l 327 490 l 327 408 l 245 408 m 490 490 l 490 572 l 653 572 l 653 490 l 490 490 m 163 490 l 163 735 l 245 735 l 245 490 l 163 490 m 408 572 l 408 735 l 490 735 l 490 572 l 408 572 m 653 572 l 653 735 l 735 735 l 735 572 l 653 572 m 245 735 l 245 817 l 327 817 l 327 735 l 245 735 m 490 735 l 490 817 l 653 817 l 653 735 l 490 735 m 327 817 l 327 899 l 408 899 l 408 817 l 327 817 m 408 899 l 408 980 l 490 980 l 490 899 l 408 899 m 163 980 l 163 1062 l 327 1062 l 327 980 l 163 980 m 490 980 l 490 1062 l 572 1062 l 572 980 l 490 980 m 81 1062 l 81 1225 l 163 1225 l 163 1062 l 81 1062 m 327 1062 l 327 1225 l 408 1225 l 408 1062 l 327 1062 m 572 1062 l 572 1225 l 653 1225 l 653 1062 l 572 1062 m 163 1225 l 163 1307 l 327 1307 l 327 1225 l 163 1225 m 408 1225 l 408 1307 l 572 1307 l 572 1225 l 408 1225 z "},"&":{"ha":980,"x_min":81,"x_max":899,"o":"m 245 490 l 245 572 l 572 572 l 572 490 l 245 490 m 163 572 l 163 653 l 245 653 l 245 572 l 163 572 m 572 572 l 572 653 l 653 653 l 653 572 l 572 572 m 408 735 l 408 899 l 490 899 l 490 735 l 408 735 m 81 653 l 81 980 l 163 980 l 163 653 l 81 653 m 653 653 l 653 899 l 490 899 l 490 980 l 817 980 l 817 899 l 735 899 l 735 653 l 653 653 m 163 980 l 163 1062 l 245 1062 l 245 980 l 163 980 m 245 1062 l 245 1144 l 408 1144 l 408 1062 l 245 1062 m 817 980 l 817 1144 l 899 1144 l 899 980 l 817 980 m 735 1144 l 735 1225 l 817 1225 l 817 1144 l 735 1144 m 163 1144 l 163 1307 l 245 1307 l 245 1144 l 163 1144 m 408 1225 l 408 1307 l 490 1307 l 490 1225 l 408 1225 m 245 1307 l 245 1389 l 408 1389 l 408 1307 l 245 1307 m 490 1307 l 490 1389 l 572 1389 l 572 1307 l 490 1307 z "},"'":{"ha":163,"x_min":0,"x_max":163,"o":"m 0 1225 l 0 1307 l 81 1307 l 81 1225 l 0 1225 m 81 1307 l 81 1470 l 163 1470 l 163 1307 l 81 1307 z "},"(":{"ha":490,"x_min":81,"x_max":408,"o":"m 245 408 l 245 490 l 327 490 l 327 408 l 245 408 m 163 490 l 163 653 l 245 653 l 245 490 l 163 490 m 81 653 l 81 1062 l 163 1062 l 163 653 l 81 653 m 163 1062 l 163 1225 l 245 1225 l 245 1062 l 163 1062 m 245 1225 l 245 1389 l 327 1389 l 327 1225 l 245 1225 m 327 1389 l 327 1470 l 408 1470 l 408 1389 l 327 1389 z "},")":{"ha":490,"x_min":81,"x_max":408,"o":"m 81 408 l 81 490 l 163 490 l 163 408 l 81 408 m 163 490 l 163 653 l 245 653 l 245 490 l 163 490 m 245 653 l 245 817 l 327 817 l 327 653 l 245 653 m 327 817 l 327 1225 l 408 1225 l 408 817 l 327 817 m 245 1225 l 245 1389 l 327 1389 l 327 1225 l 245 1225 m 163 1389 l 163 1470 l 245 1470 l 245 1389 l 163 1389 z "},"*":{"ha":490,"x_min":81,"x_max":490,"o":"m 163 899 l 163 980 l 245 980 l 245 899 l 163 899 m 81 1062 l 81 1144 l 163 1144 l 163 1062 l 81 1062 m 408 1062 l 408 1144 l 490 1144 l 490 1062 l 408 1062 m 81 1225 l 81 1307 l 163 1307 l 163 1225 l 81 1225 m 408 1225 l 408 1307 l 490 1307 l 490 1225 l 408 1225 m 245 980 l 245 1144 l 163 1144 l 163 1225 l 245 1225 l 245 1389 l 327 1389 l 327 1225 l 408 1225 l 408 1144 l 327 1144 l 327 980 l 245 980 m 327 1389 l 327 1470 l 408 1470 l 408 1389 l 327 1389 z "},"+":{"ha":735,"x_min":81,"x_max":653,"o":"m 245 653 l 245 817 l 327 817 l 327 653 l 245 653 m 327 817 l 327 899 l 81 899 l 81 980 l 327 980 l 327 1062 l 408 1062 l 408 980 l 653 980 l 653 899 l 408 899 l 408 817 l 327 817 m 408 1062 l 408 1225 l 490 1225 l 490 1062 l 408 1062 z "},",":{"ha":327,"x_min":81,"x_max":245,"o":"m 81 408 l 81 490 l 163 490 l 163 408 l 81 408 m 163 490 l 163 653 l 245 653 l 245 490 l 163 490 z "},"-":{"ha":735,"x_min":81,"x_max":653,"o":"m 81 899 l 81 980 l 653 980 l 653 899 l 81 899 z "},".":{"ha":245,"x_min":81,"x_max":163,"o":"m 81 490 l 81 653 l 163 653 l 163 490 l 81 490 z "},"/":{"ha":735,"x_min":81,"x_max":653,"o":"m 81 490 l 81 572 l 163 572 l 163 490 l 81 490 m 163 572 l 163 735 l 245 735 l 245 572 l 163 572 m 245 735 l 245 899 l 327 899 l 327 735 l 245 735 m 327 899 l 327 1062 l 408 1062 l 408 899 l 327 899 m 408 1062 l 408 1225 l 490 1225 l 490 1062 l 408 1062 m 490 1225 l 490 1389 l 572 1389 l 572 1225 l 490 1225 m 572 1389 l 572 1470 l 653 1470 l 653 1389 l 572 1389 z "},":":{"ha":327,"x_min":81,"x_max":245,"o":"m 81 490 l 81 653 l 163 653 l 163 490 l 81 490 m 163 899 l 163 1062 l 245 1062 l 245 899 l 163 899 z "},";":{"ha":408,"x_min":81,"x_max":327,"o":"m 81 408 l 81 490 l 163 490 l 163 408 l 81 408 m 163 490 l 163 653 l 245 653 l 245 490 l 163 490 m 245 899 l 245 1062 l 327 1062 l 327 899 l 245 899 z "},"<":{"ha":572,"x_min":81,"x_max":490,"o":"m 327 572 l 327 653 l 408 653 l 408 572 l 327 572 m 245 653 l 245 735 l 327 735 l 327 653 l 245 653 m 163 735 l 163 817 l 245 817 l 245 735 l 163 735 m 81 817 l 81 899 l 163 899 l 163 817 l 81 817 m 163 899 l 163 980 l 245 980 l 245 899 l 163 899 m 245 980 l 245 1062 l 327 1062 l 327 980 l 245 980 m 327 1062 l 327 1144 l 408 1144 l 408 1062 l 327 1062 m 408 1144 l 408 1225 l 490 1225 l 490 1144 l 408 1144 z "},"=":{"ha":735,"x_min":81,"x_max":653,"o":"m 81 735 l 81 817 l 653 817 l 653 735 l 81 735 m 81 899 l 81 980 l 653 980 l 653 899 l 81 899 z "},">":{"ha":572,"x_min":81,"x_max":490,"o":"m 81 572 l 81 653 l 163 653 l 163 572 l 81 572 m 163 653 l 163 735 l 245 735 l 245 653 l 163 653 m 245 735 l 245 817 l 327 817 l 327 735 l 245 735 m 327 817 l 327 899 l 408 899 l 408 817 l 327 817 m 408 899 l 408 980 l 490 980 l 490 899 l 408 899 m 327 980 l 327 1062 l 408 1062 l 408 980 l 327 980 m 245 1062 l 245 1144 l 327 1144 l 327 1062 l 245 1062 m 163 1144 l 163 1225 l 245 1225 l 245 1144 l 163 1144 z "},"?":{"ha":817,"x_min":81,"x_max":735,"o":"m 163 490 l 163 653 l 245 653 l 245 490 l 163 490 m 245 735 l 245 899 l 327 899 l 327 735 l 245 735 m 327 899 l 327 980 l 490 980 l 490 899 l 327 899 m 490 980 l 490 1062 l 653 1062 l 653 980 l 490 980 m 163 1062 l 163 1144 l 245 1144 l 245 1062 l 163 1062 m 81 1144 l 81 1307 l 163 1307 l 163 1144 l 81 1144 m 653 1062 l 653 1307 l 735 1307 l 735 1062 l 653 1062 m 163 1307 l 163 1389 l 245 1389 l 245 1307 l 163 1307 m 572 1307 l 572 1389 l 653 1389 l 653 1307 l 572 1307 m 245 1389 l 245 1470 l 572 1470 l 572 1389 l 245 1389 z "},"@":{"ha":1062,"x_min":81,"x_max":980,"o":"m 245 408 l 245 490 l 653 490 l 653 408 l 245 408 m 163 490 l 163 572 l 245 572 l 245 490 l 163 490 m 327 572 l 327 653 l 490 653 l 490 572 l 327 572 m 653 572 l 653 653 l 817 653 l 817 572 l 653 572 m 245 653 l 245 817 l 327 817 l 327 653 l 245 653 m 490 653 l 490 735 l 572 735 l 572 817 l 653 817 l 653 653 l 490 653 m 817 653 l 817 817 l 899 817 l 899 653 l 817 653 m 81 572 l 81 899 l 163 899 l 163 572 l 81 572 m 327 817 l 327 899 l 408 899 l 408 817 l 327 817 m 163 899 l 163 980 l 245 980 l 245 899 l 163 899 m 408 899 l 408 980 l 490 980 l 490 899 l 408 899 m 653 817 l 653 980 l 735 980 l 735 817 l 653 817 m 245 980 l 245 1062 l 327 1062 l 327 980 l 245 980 m 490 980 l 490 1062 l 653 1062 l 653 980 l 490 980 m 735 980 l 735 1062 l 817 1062 l 817 980 l 735 980 m 899 817 l 899 1062 l 980 1062 l 980 817 l 899 817 m 327 1062 l 327 1144 l 408 1144 l 408 1062 l 327 1062 m 817 1062 l 817 1144 l 899 1144 l 899 1062 l 817 1062 m 408 1144 l 408 1225 l 817 1225 l 817 1144 l 408 1144 z "},"A":{"ha":817,"x_min":0,"x_max":817,"o":"m 735 408 l 735 490 l 817 490 l 817 408 l 735 408 m 0 572 l 0 653 l 81 653 l 81 572 l 0 572 m 653 490 l 653 653 l 735 653 l 735 490 l 653 490 m 81 653 l 81 735 l 163 735 l 163 653 l 81 653 m 163 735 l 163 817 l 245 817 l 245 735 l 163 735 m 245 817 l 245 899 l 327 899 l 327 817 l 245 817 m 408 817 l 408 899 l 490 899 l 490 817 l 408 817 m 572 653 l 572 735 l 490 735 l 490 817 l 572 817 l 572 899 l 653 899 l 653 653 l 572 653 m 327 899 l 327 980 l 408 980 l 408 899 l 327 899 m 0 899 l 0 1062 l 81 1062 l 81 899 l 0 899 m 245 980 l 245 1062 l 327 1062 l 327 980 l 245 980 m 408 980 l 408 1062 l 490 1062 l 490 980 l 408 980 m 653 899 l 653 1062 l 735 1062 l 735 899 l 653 899 m 81 1062 l 81 1144 l 245 1144 l 245 1062 l 81 1062 m 490 1062 l 490 1144 l 572 1144 l 572 1062 l 490 1062 m 572 1144 l 572 1225 l 653 1225 l 653 1144 l 572 1144 m 408 1307 l 408 1389 l 490 1389 l 490 1307 l 408 1307 m 735 1062 l 735 1225 l 653 1225 l 653 1307 l 735 1307 l 735 1389 l 817 1389 l 817 1062 l 735 1062 m 490 1389 l 490 1470 l 735 1470 l 735 1389 l 490 1389 z "},"B":{"ha":817,"x_min":0,"x_max":817,"o":"m 408 490 l 408 572 l 653 572 l 653 490 l 408 490 m 0 490 l 0 653 l 81 653 l 81 490 l 0 490 m 327 572 l 327 653 l 408 653 l 408 572 l 327 572 m 653 572 l 653 653 l 735 653 l 735 572 l 653 572 m 81 653 l 81 817 l 163 817 l 163 653 l 81 653 m 245 653 l 245 817 l 327 817 l 327 653 l 245 653 m 735 653 l 735 899 l 817 899 l 817 653 l 735 653 m 653 899 l 653 980 l 735 980 l 735 899 l 653 899 m 163 817 l 163 980 l 245 980 l 245 1144 l 327 1144 l 327 899 l 245 899 l 245 817 l 163 817 m 572 980 l 572 1062 l 490 1062 l 490 1144 l 735 1144 l 735 1062 l 653 1062 l 653 980 l 572 980 m 327 1144 l 327 1307 l 408 1307 l 408 1225 l 490 1225 l 490 1144 l 327 1144 m 735 1144 l 735 1307 l 817 1307 l 817 1144 l 735 1144 m 81 1225 l 81 1389 l 163 1389 l 163 1225 l 81 1225 m 653 1307 l 653 1389 l 735 1389 l 735 1307 l 653 1307 m 408 1307 l 408 1389 l 163 1389 l 163 1470 l 653 1470 l 653 1389 l 490 1389 l 490 1307 l 408 1307 z "},"C":{"ha":817,"x_min":0,"x_max":817,"o":"m 163 408 l 163 490 l 572 490 l 572 408 l 163 408 m 572 490 l 572 572 l 735 572 l 735 490 l 572 490 m 81 490 l 81 653 l 163 653 l 163 490 l 81 490 m 735 572 l 735 653 l 817 653 l 817 572 l 735 572 m 0 653 l 0 899 l 81 899 l 81 653 l 0 653 m 81 899 l 81 1062 l 163 1062 l 163 899 l 81 899 m 572 1062 l 572 1144 l 735 1144 l 735 1062 l 572 1062 m 163 1062 l 163 1225 l 245 1225 l 245 1062 l 163 1062 m 245 1225 l 245 1307 l 327 1307 l 327 1225 l 245 1225 m 735 1144 l 735 1307 l 817 1307 l 817 1144 l 735 1144 m 327 1307 l 327 1389 l 490 1389 l 490 1307 l 327 1307 m 653 1307 l 653 1389 l 735 1389 l 735 1307 l 653 1307 m 490 1389 l 490 1470 l 653 1470 l 653 1389 l 490 1389 z "},"D":{"ha":899,"x_min":0,"x_max":899,"o":"m 163 408 l 163 490 l 490 490 l 490 408 l 163 408 m 490 490 l 490 572 l 653 572 l 653 490 l 490 490 m 0 490 l 0 653 l 81 653 l 81 572 l 163 572 l 163 490 l 0 490 m 653 572 l 653 653 l 735 653 l 735 572 l 653 572 m 81 653 l 81 817 l 163 817 l 163 653 l 81 653 m 735 653 l 735 817 l 817 817 l 817 653 l 735 653 m 163 817 l 163 980 l 245 980 l 245 817 l 163 817 m 245 980 l 245 1144 l 327 1144 l 327 980 l 245 980 m 817 817 l 817 1225 l 899 1225 l 899 817 l 817 817 m 327 1144 l 327 1307 l 408 1307 l 408 1144 l 327 1144 m 735 1225 l 735 1307 l 817 1307 l 817 1225 l 735 1225 m 81 1225 l 81 1389 l 163 1389 l 163 1225 l 81 1225 m 572 1307 l 572 1389 l 735 1389 l 735 1307 l 572 1307 m 408 1307 l 408 1389 l 163 1389 l 163 1470 l 572 1470 l 572 1389 l 490 1389 l 490 1307 l 408 1307 z "},"E":{"ha":817,"x_min":0,"x_max":817,"o":"m 81 408 l 81 490 l 572 490 l 572 408 l 81 408 m 572 490 l 572 572 l 735 572 l 735 490 l 572 490 m 735 572 l 735 653 l 817 653 l 817 572 l 735 572 m 0 490 l 0 735 l 81 735 l 81 490 l 0 490 m 81 735 l 81 817 l 163 817 l 163 735 l 81 735 m 163 817 l 163 899 l 327 899 l 327 817 l 163 817 m 81 899 l 81 980 l 163 980 l 163 899 l 81 899 m 327 899 l 327 980 l 490 980 l 490 899 l 327 899 m 0 980 l 0 1144 l 81 1144 l 81 980 l 0 980 m 490 1062 l 490 1144 l 653 1144 l 653 1062 l 490 1062 m 81 1144 l 81 1225 l 163 1225 l 163 1144 l 81 1144 m 163 1225 l 163 1307 l 245 1307 l 245 1225 l 163 1225 m 653 1144 l 653 1307 l 735 1307 l 735 1144 l 653 1144 m 245 1307 l 245 1389 l 408 1389 l 408 1307 l 245 1307 m 572 1307 l 572 1389 l 653 1389 l 653 1307 l 572 1307 m 408 1389 l 408 1470 l 572 1470 l 572 1389 l 408 1389 z "},"F":{"ha":735,"x_min":0,"x_max":735,"o":"m 81 81 l 81 245 l 163 245 l 163 81 l 81 81 m 163 245 l 163 408 l 245 408 l 245 245 l 163 245 m 245 408 l 245 572 l 327 572 l 327 408 l 245 408 m 327 572 l 327 735 l 408 735 l 408 572 l 327 572 m 572 817 l 572 899 l 653 899 l 653 817 l 572 817 m 163 899 l 163 980 l 245 980 l 245 899 l 163 899 m 245 980 l 245 1062 l 408 1062 l 408 980 l 245 980 m 408 735 l 408 980 l 490 980 l 490 1062 l 572 1062 l 572 899 l 490 899 l 490 735 l 408 735 m 81 1062 l 81 1144 l 163 1144 l 163 1062 l 81 1062 m 572 1062 l 572 1225 l 653 1225 l 653 1062 l 572 1062 m 0 1144 l 0 1307 l 81 1307 l 81 1144 l 0 1144 m 81 1307 l 81 1389 l 245 1389 l 245 1307 l 81 1307 m 653 1225 l 653 1389 l 245 1389 l 245 1470 l 735 1470 l 735 1225 l 653 1225 z "},"G":{"ha":817,"x_min":0,"x_max":817,"o":"m 327 81 l 327 163 l 490 163 l 490 81 l 327 81 m 572 81 l 572 163 l 653 163 l 653 81 l 572 81 m 245 163 l 245 245 l 327 245 l 327 163 l 245 163 m 490 163 l 490 245 l 327 245 l 327 327 l 572 327 l 572 163 l 490 163 m 163 408 l 163 490 l 490 490 l 490 408 l 163 408 m 572 327 l 572 490 l 653 490 l 653 327 l 572 327 m 490 490 l 490 572 l 572 572 l 572 490 l 490 490 m 81 490 l 81 653 l 163 653 l 163 490 l 81 490 m 653 490 l 653 572 l 572 572 l 572 653 l 653 653 l 653 735 l 735 735 l 735 490 l 653 490 m 0 653 l 0 899 l 81 899 l 81 653 l 0 653 m 735 735 l 735 899 l 817 899 l 817 735 l 735 735 m 81 899 l 81 1062 l 163 1062 l 163 899 l 81 899 m 572 1062 l 572 1144 l 735 1144 l 735 1062 l 572 1062 m 163 1062 l 163 1225 l 245 1225 l 245 1062 l 163 1062 m 245 1225 l 245 1307 l 327 1307 l 327 1225 l 245 1225 m 735 1144 l 735 1307 l 817 1307 l 817 1144 l 735 1144 m 327 1307 l 327 1389 l 490 1389 l 490 1307 l 327 1307 m 653 1307 l 653 1389 l 735 1389 l 735 1307 l 653 1307 m 490 1389 l 490 1470 l 653 1470 l 653 1389 l 490 1389 z "},"H":{"ha":1062,"x_min":0,"x_max":1062,"o":"m 735 490 l 735 572 l 980 572 l 980 490 l 735 490 m 0 490 l 0 653 l 81 653 l 81 490 l 0 490 m 980 572 l 980 653 l 1062 653 l 1062 572 l 980 572 m 81 653 l 81 817 l 163 817 l 163 653 l 81 653 m 653 572 l 653 817 l 735 817 l 735 572 l 653 572 m 163 817 l 163 980 l 245 980 l 245 1144 l 327 1144 l 327 980 l 817 980 l 817 817 l 735 817 l 735 899 l 245 899 l 245 817 l 163 817 m 817 980 l 817 1144 l 899 1144 l 899 980 l 817 980 m 327 1144 l 327 1307 l 408 1307 l 408 1144 l 327 1144 m 899 1144 l 899 1307 l 980 1307 l 980 1144 l 899 1144 m 408 1307 l 408 1470 l 490 1470 l 490 1307 l 408 1307 m 980 1307 l 980 1470 l 1062 1470 l 1062 1307 l 980 1307 z "},"I":{"ha":408,"x_min":0,"x_max":408,"o":"m 163 490 l 163 572 l 327 572 l 327 490 l 163 490 m 81 572 l 81 653 l 163 653 l 163 572 l 81 572 m 327 572 l 327 653 l 408 653 l 408 572 l 327 572 m 0 653 l 0 817 l 81 817 l 81 653 l 0 653 m 81 817 l 81 980 l 163 980 l 163 817 l 81 817 m 163 980 l 163 1144 l 245 1144 l 245 980 l 163 980 m 245 1144 l 245 1307 l 327 1307 l 327 1144 l 245 1144 m 81 1225 l 81 1389 l 163 1389 l 163 1225 l 81 1225 m 327 1307 l 327 1389 l 163 1389 l 163 1470 l 408 1470 l 408 1307 l 327 1307 z "},"J":{"ha":735,"x_min":0,"x_max":735,"o":"m 81 81 l 81 163 l 245 163 l 245 81 l 81 81 m 327 81 l 327 163 l 408 163 l 408 81 l 327 81 m 0 163 l 0 245 l 81 245 l 81 163 l 0 163 m 245 163 l 245 245 l 327 245 l 327 163 l 245 163 m 81 245 l 81 327 l 245 327 l 245 245 l 81 245 m 327 245 l 327 408 l 408 408 l 408 245 l 327 245 m 408 408 l 408 572 l 490 572 l 490 408 l 408 408 m 327 572 l 327 653 l 408 653 l 408 572 l 327 572 m 490 572 l 490 735 l 572 735 l 572 572 l 490 572 m 245 653 l 245 817 l 327 817 l 327 653 l 245 653 m 572 735 l 572 899 l 653 899 l 653 735 l 572 735 m 163 817 l 163 1144 l 245 1144 l 245 817 l 163 817 m 245 1144 l 245 1307 l 327 1307 l 327 1144 l 245 1144 m 653 899 l 653 1307 l 735 1307 l 735 899 l 653 899 m 327 1307 l 327 1389 l 408 1389 l 408 1307 l 327 1307 m 572 1307 l 572 1389 l 653 1389 l 653 1307 l 572 1307 m 408 1389 l 408 1470 l 572 1470 l 572 1389 l 408 1389 z "},"K":{"ha":1062,"x_min":0,"x_max":1062,"o":"m 735 490 l 735 572 l 980 572 l 980 490 l 735 490 m 0 490 l 0 653 l 81 653 l 81 490 l 0 490 m 653 572 l 653 653 l 735 653 l 735 572 l 653 572 m 980 572 l 980 653 l 1062 653 l 1062 572 l 980 572 m 572 653 l 572 735 l 653 735 l 653 653 l 572 653 m 81 653 l 81 817 l 163 817 l 163 653 l 81 653 m 490 735 l 490 817 l 572 817 l 572 735 l 490 735 m 490 980 l 490 1062 l 653 1062 l 653 980 l 490 980 m 163 817 l 163 980 l 245 980 l 245 1144 l 327 1144 l 327 980 l 490 980 l 490 817 l 408 817 l 408 899 l 245 899 l 245 817 l 163 817 m 653 1062 l 653 1144 l 817 1144 l 817 1062 l 653 1062 m 817 1144 l 817 1225 l 899 1225 l 899 1144 l 817 1144 m 327 1144 l 327 1307 l 408 1307 l 408 1144 l 327 1144 m 899 1225 l 899 1307 l 980 1307 l 980 1225 l 899 1225 m 408 1307 l 408 1470 l 490 1470 l 490 1307 l 408 1307 m 980 1307 l 980 1470 l 1062 1470 l 1062 1307 l 980 1307 z "},"L":{"ha":1062,"x_min":0,"x_max":1062,"o":"m 81 490 l 81 572 l 245 572 l 245 490 l 81 490 m 327 490 l 327 572 l 980 572 l 980 490 l 327 490 m 0 572 l 0 653 l 81 653 l 81 572 l 0 572 m 245 572 l 245 653 l 327 653 l 327 572 l 245 572 m 980 572 l 980 653 l 1062 653 l 1062 572 l 980 572 m 81 653 l 81 735 l 245 735 l 245 653 l 81 653 m 327 653 l 327 817 l 408 817 l 408 653 l 327 653 m 408 817 l 408 980 l 490 980 l 490 817 l 408 817 m 490 980 l 490 1144 l 572 1144 l 572 980 l 490 980 m 899 1144 l 899 1225 l 980 1225 l 980 1144 l 899 1144 m 572 1144 l 572 1307 l 653 1307 l 653 1144 l 572 1144 m 653 1307 l 653 1389 l 735 1389 l 735 1307 l 653 1307 m 980 1225 l 980 1389 l 1062 1389 l 1062 1225 l 980 1225 m 735 1389 l 735 1470 l 980 1470 l 980 1389 l 735 1389 z "},"M":{"ha":1389,"x_min":0,"x_max":1389,"o":"m 1144 490 l 1144 572 l 1307 572 l 1307 490 l 1144 490 m 0 490 l 0 653 l 81 653 l 81 490 l 0 490 m 490 490 l 490 653 l 572 653 l 572 490 l 490 490 m 1307 572 l 1307 653 l 1389 653 l 1389 572 l 1307 572 m 81 653 l 81 817 l 163 817 l 163 653 l 81 653 m 572 653 l 572 817 l 653 817 l 653 653 l 572 653 m 1062 572 l 1062 817 l 1144 817 l 1144 572 l 1062 572 m 163 817 l 163 980 l 245 980 l 245 817 l 163 817 m 653 817 l 653 980 l 735 980 l 735 817 l 653 817 m 1144 817 l 1144 980 l 1225 980 l 1225 817 l 1144 817 m 1225 980 l 1225 1062 l 1307 1062 l 1307 980 l 1225 980 m 245 980 l 245 1144 l 327 1144 l 327 980 l 245 980 m 735 980 l 735 1144 l 817 1144 l 817 980 l 735 980 m 327 1144 l 327 1307 l 408 1307 l 408 1144 l 327 1144 m 817 1144 l 817 1307 l 899 1307 l 899 1144 l 817 1144 m 1307 1062 l 1307 1307 l 1389 1307 l 1389 1062 l 1307 1062 m 81 1225 l 81 1389 l 163 1389 l 163 1225 l 81 1225 m 408 1307 l 408 1389 l 490 1389 l 490 1307 l 408 1307 m 735 1307 l 735 1389 l 817 1389 l 817 1307 l 735 1307 m 899 1307 l 899 1389 l 980 1389 l 980 1307 l 899 1307 m 1225 1307 l 1225 1389 l 1307 1389 l 1307 1307 l 1225 1307 m 163 1389 l 163 1470 l 408 1470 l 408 1389 l 163 1389 m 490 1389 l 490 1470 l 735 1470 l 735 1389 l 490 1389 m 980 1389 l 980 1470 l 1225 1470 l 1225 1389 l 980 1389 z "},"N":{"ha":899,"x_min":0,"x_max":899,"o":"m 653 490 l 653 572 l 817 572 l 817 490 l 653 490 m 0 490 l 0 653 l 81 653 l 81 490 l 0 490 m 817 572 l 817 653 l 899 653 l 899 572 l 817 572 m 81 653 l 81 817 l 163 817 l 163 653 l 81 653 m 572 572 l 572 817 l 653 817 l 653 572 l 572 572 m 163 817 l 163 980 l 245 980 l 245 817 l 163 817 m 653 817 l 653 980 l 735 980 l 735 817 l 653 817 m 735 980 l 735 1062 l 817 1062 l 817 980 l 735 980 m 245 980 l 245 1144 l 327 1144 l 327 980 l 245 980 m 327 1144 l 327 1307 l 408 1307 l 408 1144 l 327 1144 m 817 1062 l 817 1307 l 899 1307 l 899 1062 l 817 1062 m 81 1225 l 81 1389 l 163 1389 l 163 1225 l 81 1225 m 408 1307 l 408 1389 l 490 1389 l 490 1307 l 408 1307 m 735 1307 l 735 1389 l 817 1389 l 817 1307 l 735 1307 m 163 1389 l 163 1470 l 408 1470 l 408 1389 l 163 1389 m 490 1389 l 490 1470 l 735 1470 l 735 1389 l 490 1389 z "},"O":{"ha":980,"x_min":0,"x_max":980,"o":"m 163 408 l 163 490 l 490 490 l 490 408 l 163 408 m 490 490 l 490 572 l 653 572 l 653 490 l 490 490 m 81 490 l 81 653 l 163 653 l 163 490 l 81 490 m 653 572 l 653 653 l 735 653 l 735 572 l 653 572 m 735 653 l 735 817 l 817 817 l 817 653 l 735 653 m 0 653 l 0 899 l 81 899 l 81 653 l 0 653 m 817 817 l 817 980 l 899 980 l 899 817 l 817 817 m 81 899 l 81 1062 l 163 1062 l 163 899 l 81 899 m 163 1062 l 163 1225 l 245 1225 l 245 1062 l 163 1062 m 899 980 l 899 1225 l 980 1225 l 980 980 l 899 980 m 245 1225 l 245 1307 l 327 1307 l 327 1225 l 245 1225 m 327 1307 l 327 1389 l 490 1389 l 490 1307 l 327 1307 m 817 1225 l 817 1389 l 899 1389 l 899 1225 l 817 1225 m 490 1389 l 490 1470 l 817 1470 l 817 1389 l 490 1389 z "},"P":{"ha":899,"x_min":0,"x_max":899,"o":"m 0 490 l 0 653 l 81 653 l 81 490 l 0 490 m 81 653 l 81 817 l 163 817 l 163 653 l 81 653 m 408 817 l 408 899 l 653 899 l 653 817 l 408 817 m 163 817 l 163 980 l 245 980 l 245 817 l 163 817 m 327 899 l 327 980 l 408 980 l 408 899 l 327 899 m 653 899 l 653 980 l 735 980 l 735 899 l 653 899 m 735 980 l 735 1062 l 817 1062 l 817 980 l 735 980 m 245 980 l 245 1144 l 327 1144 l 327 980 l 245 980 m 327 1144 l 327 1307 l 408 1307 l 408 1144 l 327 1144 m 817 1062 l 817 1307 l 899 1307 l 899 1062 l 817 1062 m 81 1225 l 81 1389 l 163 1389 l 163 1225 l 81 1225 m 408 1307 l 408 1389 l 490 1389 l 490 1307 l 408 1307 m 735 1307 l 735 1389 l 817 1389 l 817 1307 l 735 1307 m 163 1389 l 163 1470 l 408 1470 l 408 1389 l 163 1389 m 490 1389 l 490 1470 l 735 1470 l 735 1389 l 490 1389 z "},"Q":{"ha":980,"x_min":0,"x_max":980,"o":"m 408 81 l 408 163 l 572 163 l 572 81 l 408 81 m 653 81 l 653 163 l 735 163 l 735 81 l 653 81 m 327 163 l 327 245 l 408 245 l 408 163 l 327 163 m 572 163 l 572 245 l 653 245 l 653 163 l 572 163 m 408 245 l 408 327 l 572 327 l 572 245 l 408 245 m 653 245 l 653 327 l 735 327 l 735 245 l 653 245 m 163 408 l 163 490 l 490 490 l 490 408 l 163 408 m 490 490 l 490 572 l 653 572 l 653 490 l 490 490 m 735 327 l 735 572 l 817 572 l 817 327 l 735 327 m 81 490 l 81 653 l 163 653 l 163 490 l 81 490 m 653 572 l 653 653 l 735 653 l 735 572 l 653 572 m 572 653 l 572 735 l 653 735 l 653 653 l 572 653 m 735 653 l 735 817 l 817 817 l 817 653 l 735 653 m 0 653 l 0 899 l 81 899 l 81 653 l 0 653 m 490 735 l 490 899 l 572 899 l 572 735 l 490 735 m 817 817 l 817 980 l 899 980 l 899 817 l 817 817 m 81 899 l 81 1062 l 163 1062 l 163 899 l 81 899 m 163 1062 l 163 1225 l 245 1225 l 245 1062 l 163 1062 m 899 980 l 899 1225 l 980 1225 l 980 980 l 899 980 m 245 1225 l 245 1307 l 327 1307 l 327 1225 l 245 1225 m 327 1307 l 327 1389 l 490 1389 l 490 1307 l 327 1307 m 817 1225 l 817 1389 l 899 1389 l 899 1225 l 817 1225 m 490 1389 l 490 1470 l 817 1470 l 817 1389 l 490 1389 z "},"R":{"ha":899,"x_min":0,"x_max":899,"o":"m 490 408 l 490 490 l 735 490 l 735 408 l 490 408 m 735 490 l 735 572 l 817 572 l 817 490 l 735 490 m 0 490 l 0 653 l 81 653 l 81 490 l 0 490 m 408 490 l 408 653 l 490 653 l 490 490 l 408 490 m 817 572 l 817 653 l 899 653 l 899 572 l 817 572 m 81 653 l 81 817 l 163 817 l 163 653 l 81 653 m 163 817 l 163 980 l 245 980 l 245 817 l 163 817 m 327 653 l 327 980 l 408 980 l 408 899 l 653 899 l 653 817 l 408 817 l 408 653 l 327 653 m 653 899 l 653 980 l 735 980 l 735 899 l 653 899 m 735 980 l 735 1062 l 817 1062 l 817 980 l 735 980 m 245 980 l 245 1144 l 327 1144 l 327 980 l 245 980 m 327 1144 l 327 1307 l 408 1307 l 408 1144 l 327 1144 m 817 1062 l 817 1307 l 899 1307 l 899 1062 l 817 1062 m 81 1225 l 81 1389 l 163 1389 l 163 1225 l 81 1225 m 408 1307 l 408 1389 l 490 1389 l 490 1307 l 408 1307 m 735 1307 l 735 1389 l 817 1389 l 817 1307 l 735 1307 m 163 1389 l 163 1470 l 408 1470 l 408 1389 l 163 1389 m 490 1389 l 490 1470 l 735 1470 l 735 1389 l 490 1389 z "},"S":{"ha":817,"x_min":0,"x_max":817,"o":"m 163 408 l 163 490 l 653 490 l 653 408 l 163 408 m 81 490 l 81 572 l 163 572 l 163 490 l 81 490 m 653 490 l 653 572 l 735 572 l 735 490 l 653 490 m 0 572 l 0 817 l 81 817 l 81 572 l 0 572 m 327 735 l 327 817 l 408 817 l 408 735 l 327 735 m 735 572 l 735 817 l 817 817 l 817 572 l 735 572 m 81 817 l 81 899 l 327 899 l 327 817 l 81 817 m 653 817 l 653 899 l 735 899 l 735 817 l 653 817 m 490 899 l 490 980 l 653 980 l 653 899 l 490 899 m 327 980 l 327 1062 l 490 1062 l 490 980 l 327 980 m 245 1062 l 245 1144 l 327 1144 l 327 1062 l 245 1062 m 572 1144 l 572 1225 l 653 1225 l 653 1144 l 572 1144 m 163 1144 l 163 1307 l 245 1307 l 245 1144 l 163 1144 m 245 1307 l 245 1389 l 408 1389 l 408 1307 l 245 1307 m 653 1225 l 653 1389 l 735 1389 l 735 1225 l 653 1225 m 408 1389 l 408 1470 l 653 1470 l 653 1389 l 408 1389 z "},"T":{"ha":980,"x_min":0,"x_max":980,"o":"m 490 408 l 490 490 l 817 490 l 817 408 l 490 408 m 408 490 l 408 572 l 490 572 l 490 490 l 408 490 m 817 490 l 817 572 l 899 572 l 899 490 l 817 490 m 899 572 l 899 653 l 980 653 l 980 572 l 899 572 m 327 572 l 327 817 l 408 817 l 408 572 l 327 572 m 408 817 l 408 980 l 490 980 l 490 817 l 408 817 m 81 1062 l 81 1144 l 163 1144 l 163 1062 l 81 1062 m 490 980 l 490 1144 l 572 1144 l 572 980 l 490 980 m 0 1144 l 0 1307 l 81 1307 l 81 1144 l 0 1144 m 572 1144 l 572 1307 l 653 1307 l 653 1144 l 572 1144 m 81 1307 l 81 1389 l 245 1389 l 245 1307 l 81 1307 m 653 1307 l 653 1389 l 245 1389 l 245 1470 l 980 1470 l 980 1389 l 735 1389 l 735 1307 l 653 1307 z "},"U":{"ha":980,"x_min":0,"x_max":980,"o":"m 163 408 l 163 490 l 408 490 l 408 408 l 163 408 m 81 490 l 81 572 l 163 572 l 163 490 l 81 490 m 408 490 l 408 572 l 490 572 l 490 490 l 408 490 m 735 490 l 735 572 l 899 572 l 899 490 l 735 490 m 490 572 l 490 653 l 572 653 l 572 572 l 490 572 m 653 572 l 653 653 l 735 653 l 735 572 l 653 572 m 899 572 l 899 653 l 980 653 l 980 572 l 899 572 m 0 572 l 0 817 l 81 817 l 81 572 l 0 572 m 572 653 l 572 817 l 653 817 l 653 653 l 572 653 m 81 817 l 81 980 l 163 980 l 163 817 l 81 817 m 653 817 l 653 980 l 735 980 l 735 817 l 653 817 m 163 980 l 163 1144 l 245 1144 l 245 980 l 163 980 m 735 980 l 735 1144 l 817 1144 l 817 980 l 735 980 m 245 1144 l 245 1307 l 327 1307 l 327 1144 l 245 1144 m 817 1144 l 817 1307 l 899 1307 l 899 1144 l 817 1144 m 327 1307 l 327 1470 l 408 1470 l 408 1307 l 327 1307 m 899 1307 l 899 1470 l 980 1470 l 980 1307 l 899 1307 z "},"V":{"ha":980,"x_min":0,"x_max":980,"o":"m 408 163 l 408 245 l 490 245 l 490 163 l 408 163 m 327 245 l 327 490 l 408 490 l 408 245 l 327 245 m 408 490 l 408 572 l 490 572 l 490 490 l 408 490 m 490 572 l 490 653 l 572 653 l 572 572 l 490 572 m 245 490 l 245 735 l 327 735 l 327 490 l 245 490 m 572 653 l 572 735 l 653 735 l 653 653 l 572 653 m 653 735 l 653 817 l 735 817 l 735 735 l 653 735 m 735 817 l 735 899 l 817 899 l 817 817 l 735 817 m 163 735 l 163 980 l 245 980 l 245 735 l 163 735 m 817 899 l 817 1062 l 899 1062 l 899 899 l 817 899 m 81 980 l 81 1225 l 163 1225 l 163 980 l 81 980 m 899 1062 l 899 1307 l 980 1307 l 980 1062 l 899 1062 m 0 1225 l 0 1470 l 81 1470 l 81 1225 l 0 1225 m 490 1307 l 490 1470 l 572 1470 l 572 1307 l 490 1307 m 817 1307 l 817 1470 l 899 1470 l 899 1307 l 817 1307 m 572 1470 l 572 1552 l 817 1552 l 817 1470 l 572 1470 z "},"W":{"ha":1552,"x_min":0,"x_max":1552,"o":"m 163 408 l 163 490 l 408 490 l 408 408 l 163 408 m 735 408 l 735 490 l 980 490 l 980 408 l 735 408 m 81 490 l 81 572 l 163 572 l 163 490 l 81 490 m 408 490 l 408 572 l 490 572 l 490 490 l 408 490 m 653 490 l 653 572 l 735 572 l 735 490 l 653 490 m 980 490 l 980 572 l 1062 572 l 1062 490 l 980 490 m 1307 490 l 1307 572 l 1470 572 l 1470 490 l 1307 490 m 1062 572 l 1062 653 l 1144 653 l 1144 572 l 1062 572 m 1225 572 l 1225 653 l 1307 653 l 1307 572 l 1225 572 m 1470 572 l 1470 653 l 1552 653 l 1552 572 l 1470 572 m 0 572 l 0 817 l 81 817 l 81 572 l 0 572 m 490 572 l 490 653 l 572 653 l 572 817 l 653 817 l 653 572 l 490 572 m 1144 653 l 1144 817 l 1225 817 l 1225 653 l 1144 653 m 81 817 l 81 980 l 163 980 l 163 817 l 81 817 m 653 817 l 653 980 l 735 980 l 735 817 l 653 817 m 1225 817 l 1225 980 l 1307 980 l 1307 817 l 1225 817 m 163 980 l 163 1144 l 245 1144 l 245 980 l 163 980 m 735 980 l 735 1144 l 817 1144 l 817 980 l 735 980 m 1307 980 l 1307 1144 l 1389 1144 l 1389 980 l 1307 980 m 245 1144 l 245 1307 l 327 1307 l 327 1144 l 245 1144 m 817 1144 l 817 1307 l 899 1307 l 899 1144 l 817 1144 m 1389 1144 l 1389 1307 l 1470 1307 l 1470 1144 l 1389 1144 m 327 1307 l 327 1470 l 408 1470 l 408 1307 l 327 1307 m 899 1307 l 899 1470 l 980 1470 l 980 1307 l 899 1307 m 1470 1307 l 1470 1470 l 1552 1470 l 1552 1307 l 1470 1307 z "},"X":{"ha":1062,"x_min":0,"x_max":1062,"o":"m 0 327 l 0 408 l 81 408 l 81 327 l 0 327 m 81 408 l 81 490 l 163 490 l 163 408 l 81 408 m 163 490 l 163 572 l 245 572 l 245 490 l 163 490 m 817 490 l 817 572 l 980 572 l 980 490 l 817 490 m 245 572 l 245 653 l 327 653 l 327 572 l 245 572 m 735 572 l 735 653 l 817 653 l 817 572 l 735 572 m 980 572 l 980 653 l 1062 653 l 1062 572 l 980 572 m 327 653 l 327 735 l 408 735 l 408 653 l 327 653 m 408 735 l 408 817 l 490 817 l 490 735 l 408 735 m 653 653 l 653 817 l 735 817 l 735 653 l 653 653 m 490 817 l 490 899 l 572 899 l 572 980 l 653 980 l 653 817 l 490 817 m 653 980 l 653 1062 l 735 1062 l 735 980 l 653 980 m 81 1062 l 81 1144 l 245 1144 l 245 1062 l 81 1062 m 490 980 l 490 1144 l 572 1144 l 572 980 l 490 980 m 735 1062 l 735 1144 l 817 1144 l 817 1062 l 735 1062 m 817 1144 l 817 1225 l 899 1225 l 899 1144 l 817 1144 m 0 1144 l 0 1307 l 81 1307 l 81 1144 l 0 1144 m 408 1144 l 408 1307 l 490 1307 l 490 1144 l 408 1144 m 899 1225 l 899 1307 l 980 1307 l 980 1225 l 899 1225 m 81 1307 l 81 1389 l 163 1389 l 163 1307 l 81 1307 m 327 1307 l 327 1389 l 408 1389 l 408 1307 l 327 1307 m 163 1389 l 163 1470 l 327 1470 l 327 1389 l 163 1389 z "},"Y":{"ha":980,"x_min":0,"x_max":980,"o":"m 81 81 l 81 163 l 327 163 l 327 81 l 81 81 m 327 163 l 327 245 l 408 245 l 408 163 l 327 163 m 0 163 l 0 327 l 81 327 l 81 163 l 0 163 m 81 327 l 81 408 l 163 408 l 163 327 l 81 327 m 408 245 l 408 408 l 163 408 l 163 490 l 490 490 l 490 572 l 572 572 l 572 490 l 735 490 l 735 408 l 490 408 l 490 245 l 408 245 m 735 490 l 735 572 l 899 572 l 899 490 l 735 490 m 899 572 l 899 653 l 980 653 l 980 572 l 899 572 m 572 572 l 572 653 l 327 653 l 327 735 l 653 735 l 653 572 l 572 572 m 245 735 l 245 817 l 327 817 l 327 735 l 245 735 m 653 735 l 653 899 l 735 899 l 735 735 l 653 735 m 163 817 l 163 1062 l 245 1062 l 245 817 l 163 817 m 735 899 l 735 1062 l 817 1062 l 817 899 l 735 899 m 245 1062 l 245 1225 l 327 1225 l 327 1062 l 245 1062 m 817 1062 l 817 1225 l 899 1225 l 899 1062 l 817 1062 m 327 1225 l 327 1389 l 408 1389 l 408 1225 l 327 1225 m 899 1225 l 899 1389 l 980 1389 l 980 1225 l 899 1225 z "},"Z":{"ha":980,"x_min":0,"x_max":980,"o":"m 81 81 l 81 163 l 327 163 l 327 81 l 81 81 m 327 163 l 327 245 l 408 245 l 408 163 l 327 163 m 0 163 l 0 327 l 81 327 l 81 163 l 0 163 m 81 327 l 81 408 l 163 408 l 163 327 l 81 327 m 408 245 l 408 408 l 163 408 l 163 490 l 490 490 l 490 572 l 572 572 l 572 490 l 735 490 l 735 408 l 490 408 l 490 245 l 408 245 m 735 490 l 735 572 l 899 572 l 899 490 l 735 490 m 245 572 l 245 653 l 327 653 l 327 572 l 245 572 m 899 572 l 899 653 l 980 653 l 980 572 l 899 572 m 327 653 l 327 817 l 408 817 l 408 735 l 490 735 l 490 653 l 327 653 m 572 572 l 572 735 l 490 735 l 490 817 l 572 817 l 572 899 l 653 899 l 653 572 l 572 572 m 163 899 l 163 980 l 245 980 l 245 899 l 163 899 m 408 817 l 408 980 l 490 980 l 490 817 l 408 817 m 81 980 l 81 1225 l 163 1225 l 163 980 l 81 980 m 490 980 l 490 1225 l 572 1225 l 572 980 l 490 980 m 163 1225 l 163 1307 l 245 1307 l 245 1225 l 163 1225 m 408 1225 l 408 1307 l 490 1307 l 490 1225 l 408 1225 m 245 1307 l 245 1389 l 408 1389 l 408 1307 l 245 1307 z "},"[":{"ha":490,"x_min":81,"x_max":408,"o":"m 81 408 l 81 735 l 163 735 l 163 490 l 245 490 l 245 408 l 81 408 m 163 735 l 163 1062 l 245 1062 l 245 735 l 163 735 m 245 1062 l 245 1389 l 408 1389 l 408 1307 l 327 1307 l 327 1062 l 245 1062 z "},"\\":{"ha":735,"x_min":81,"x_max":653,"o":"m 572 408 l 572 490 l 653 490 l 653 408 l 572 408 m 490 490 l 490 653 l 572 653 l 572 490 l 490 490 m 408 653 l 408 817 l 490 817 l 490 653 l 408 653 m 327 817 l 327 980 l 408 980 l 408 817 l 327 817 m 245 980 l 245 1144 l 327 1144 l 327 980 l 245 980 m 163 1144 l 163 1307 l 245 1307 l 245 1144 l 163 1144 m 81 1307 l 81 1389 l 163 1389 l 163 1307 l 81 1307 z "},"]":{"ha":490,"x_min":81,"x_max":408,"o":"m 81 408 l 81 490 l 163 490 l 163 735 l 245 735 l 245 408 l 81 408 m 245 735 l 245 1062 l 327 1062 l 327 735 l 245 735 m 327 1062 l 327 1307 l 245 1307 l 245 1389 l 408 1389 l 408 1062 l 327 1062 z "},"^":{"ha":653,"x_min":81,"x_max":572,"o":"m 81 1225 l 81 1307 l 163 1307 l 163 1225 l 81 1225 m 490 1225 l 490 1307 l 572 1307 l 572 1225 l 490 1225 m 163 1307 l 163 1389 l 327 1389 l 327 1307 l 163 1307 m 408 1307 l 408 1389 l 490 1389 l 490 1307 l 408 1307 m 327 1389 l 327 1470 l 408 1470 l 408 1389 l 327 1389 z "},"_":{"ha":817,"x_min":81,"x_max":735,"o":"m 81 490 l 81 572 l 735 572 l 735 490 l 81 490 z "},"`":{"ha":408,"x_min":81,"x_max":327,"o":"m 245 1225 l 245 1307 l 327 1307 l 327 1225 l 245 1225 m 163 1307 l 163 1389 l 245 1389 l 245 1307 l 163 1307 m 81 1389 l 81 1470 l 163 1470 l 163 1389 l 81 1389 z "},"a":{"ha":735,"x_min":0,"x_max":735,"o":"m 163 490 l 163 572 l 327 572 l 327 490 l 163 490 m 490 490 l 490 572 l 653 572 l 653 490 l 490 490 m 653 572 l 653 653 l 735 653 l 735 572 l 653 572 m 81 572 l 81 653 l 0 653 l 0 735 l 81 735 l 81 817 l 163 817 l 163 572 l 81 572 m 327 572 l 327 653 l 408 653 l 408 817 l 490 817 l 490 572 l 327 572 m 163 817 l 163 980 l 245 980 l 245 817 l 163 817 m 245 980 l 245 1062 l 327 1062 l 327 980 l 245 980 m 490 817 l 490 1062 l 572 1062 l 572 817 l 490 817 m 327 1062 l 327 1144 l 490 1144 l 490 1062 l 327 1062 m 572 1062 l 572 1144 l 653 1144 l 653 1062 l 572 1062 z "},"b":{"ha":735,"x_min":0,"x_max":735,"o":"m 163 490 l 163 572 l 327 572 l 327 490 l 163 490 m 490 490 l 490 572 l 653 572 l 653 490 l 490 490 m 653 572 l 653 653 l 735 653 l 735 572 l 653 572 m 81 572 l 81 653 l 0 653 l 0 735 l 81 735 l 81 817 l 163 817 l 163 572 l 81 572 m 327 572 l 327 653 l 408 653 l 408 817 l 490 817 l 490 572 l 327 572 m 163 817 l 163 980 l 245 980 l 245 817 l 163 817 m 490 817 l 490 1062 l 572 1062 l 572 817 l 490 817 m 245 980 l 245 1144 l 327 1144 l 327 1307 l 408 1307 l 408 1144 l 490 1144 l 490 1062 l 327 1062 l 327 980 l 245 980 m 408 1307 l 408 1470 l 490 1470 l 490 1307 l 408 1307 z "},"c":{"ha":572,"x_min":0,"x_max":572,"o":"m 245 490 l 245 572 l 490 572 l 490 490 l 245 490 m 163 572 l 163 653 l 245 653 l 245 572 l 163 572 m 490 572 l 490 653 l 572 653 l 572 572 l 490 572 m 0 653 l 0 735 l 81 735 l 81 817 l 163 817 l 163 653 l 0 653 m 408 817 l 408 899 l 490 899 l 490 817 l 408 817 m 163 817 l 163 980 l 245 980 l 245 817 l 163 817 m 245 980 l 245 1062 l 327 1062 l 327 980 l 245 980 m 490 899 l 490 1062 l 572 1062 l 572 899 l 490 899 m 327 1062 l 327 1144 l 490 1144 l 490 1062 l 327 1062 z "},"d":{"ha":735,"x_min":0,"x_max":735,"o":"m 163 490 l 163 572 l 327 572 l 327 490 l 163 490 m 490 490 l 490 572 l 653 572 l 653 490 l 490 490 m 653 572 l 653 653 l 735 653 l 735 572 l 653 572 m 81 572 l 81 653 l 0 653 l 0 735 l 81 735 l 81 817 l 163 817 l 163 572 l 81 572 m 327 572 l 327 653 l 408 653 l 408 817 l 490 817 l 490 572 l 327 572 m 163 817 l 163 980 l 245 980 l 245 817 l 163 817 m 245 980 l 245 1062 l 327 1062 l 327 980 l 245 980 m 490 817 l 490 1062 l 572 1062 l 572 817 l 490 817 m 327 1062 l 327 1144 l 490 1144 l 490 1062 l 327 1062 m 572 1062 l 572 1307 l 653 1307 l 653 1062 l 572 1062 m 653 1307 l 653 1470 l 735 1470 l 735 1307 l 653 1307 z "},"e":{"ha":572,"x_min":0,"x_max":572,"o":"m 245 490 l 245 572 l 490 572 l 490 490 l 245 490 m 163 572 l 163 653 l 245 653 l 245 572 l 163 572 m 490 572 l 490 653 l 572 653 l 572 572 l 490 572 m 245 817 l 245 899 l 327 899 l 327 817 l 245 817 m 0 653 l 0 735 l 81 735 l 81 980 l 163 980 l 163 817 l 245 817 l 245 735 l 163 735 l 163 653 l 0 653 m 327 899 l 327 980 l 408 980 l 408 899 l 327 899 m 163 980 l 163 1062 l 245 1062 l 245 980 l 163 980 m 408 980 l 408 1062 l 245 1062 l 245 1144 l 490 1144 l 490 980 l 408 980 z "},"f":{"ha":490,"x_min":0,"x_max":490,"o":"m 81 163 l 81 245 l 163 245 l 163 163 l 81 163 m 163 245 l 163 408 l 245 408 l 245 245 l 163 245 m 0 245 l 0 490 l 81 490 l 81 245 l 0 245 m 245 408 l 245 653 l 327 653 l 327 572 l 408 572 l 408 490 l 327 490 l 327 408 l 245 408 m 408 572 l 408 653 l 490 653 l 490 572 l 408 572 m 81 490 l 81 653 l 0 653 l 0 735 l 81 735 l 81 817 l 163 817 l 163 735 l 245 735 l 245 653 l 163 653 l 163 490 l 81 490 m 163 817 l 163 980 l 245 980 l 245 817 l 163 817 m 245 980 l 245 1144 l 327 1144 l 327 980 l 245 980 m 327 1144 l 327 1307 l 408 1307 l 408 1144 l 327 1144 m 408 1307 l 408 1470 l 490 1470 l 490 1307 l 408 1307 z "},"g":{"ha":653,"x_min":0,"x_max":653,"o":"m 81 81 l 81 163 l 163 163 l 163 81 l 81 81 m 163 163 l 163 245 l 245 245 l 245 163 l 163 163 m 327 163 l 327 245 l 408 245 l 408 163 l 327 163 m 0 163 l 0 327 l 81 327 l 81 163 l 0 163 m 245 245 l 245 327 l 81 327 l 81 408 l 327 408 l 327 245 l 245 245 m 490 490 l 490 572 l 572 572 l 572 490 l 490 490 m 572 572 l 572 653 l 653 653 l 653 572 l 572 572 m 81 572 l 81 653 l 0 653 l 0 735 l 81 735 l 81 817 l 163 817 l 163 572 l 81 572 m 327 408 l 327 490 l 163 490 l 163 572 l 327 572 l 327 653 l 408 653 l 408 817 l 490 817 l 490 572 l 408 572 l 408 408 l 327 408 m 163 817 l 163 980 l 245 980 l 245 817 l 163 817 m 245 980 l 245 1062 l 327 1062 l 327 980 l 245 980 m 490 817 l 490 1062 l 572 1062 l 572 817 l 490 817 m 327 1062 l 327 1144 l 490 1144 l 490 1062 l 327 1062 m 572 1062 l 572 1144 l 653 1144 l 653 1062 l 572 1062 z "},"h":{"ha":735,"x_min":0,"x_max":735,"o":"m 0 490 l 0 572 l 81 572 l 81 490 l 0 490 m 490 490 l 490 572 l 653 572 l 653 490 l 490 490 m 653 572 l 653 653 l 735 653 l 735 572 l 653 572 m 81 572 l 81 653 l 0 653 l 0 735 l 81 735 l 81 817 l 163 817 l 163 572 l 81 572 m 408 572 l 408 817 l 490 817 l 490 572 l 408 572 m 163 817 l 163 980 l 245 980 l 245 817 l 163 817 m 490 817 l 490 1062 l 572 1062 l 572 817 l 490 817 m 245 980 l 245 1144 l 327 1144 l 327 1307 l 408 1307 l 408 1144 l 490 1144 l 490 1062 l 327 1062 l 327 980 l 245 980 m 408 1307 l 408 1470 l 490 1470 l 490 1307 l 408 1307 z "},"i":{"ha":408,"x_min":0,"x_max":408,"o":"m 163 490 l 163 572 l 327 572 l 327 490 l 163 490 m 327 572 l 327 653 l 408 653 l 408 572 l 327 572 m 81 572 l 81 653 l 0 653 l 0 735 l 81 735 l 81 817 l 163 817 l 163 572 l 81 572 m 163 817 l 163 980 l 245 980 l 245 817 l 163 817 m 245 980 l 245 1144 l 327 1144 l 327 980 l 245 980 m 327 1225 l 327 1389 l 408 1389 l 408 1225 l 327 1225 z "},"j":{"ha":572,"x_min":0,"x_max":572,"o":"m 81 81 l 81 163 l 163 163 l 163 81 l 81 81 m 163 163 l 163 245 l 245 245 l 245 163 l 163 163 m 327 163 l 327 245 l 408 245 l 408 163 l 327 163 m 0 163 l 0 327 l 81 327 l 81 163 l 0 163 m 245 245 l 245 327 l 81 327 l 81 408 l 245 408 l 245 572 l 327 572 l 327 245 l 245 245 m 408 490 l 408 572 l 490 572 l 490 490 l 408 490 m 490 572 l 490 653 l 572 653 l 572 572 l 490 572 m 0 653 l 0 735 l 81 735 l 81 653 l 0 653 m 81 735 l 81 817 l 163 817 l 163 735 l 81 735 m 327 572 l 327 817 l 408 817 l 408 572 l 327 572 m 163 817 l 163 899 l 245 899 l 245 817 l 163 817 m 245 899 l 245 980 l 327 980 l 327 899 l 245 899 m 408 817 l 408 980 l 327 980 l 327 1062 l 408 1062 l 408 1144 l 490 1144 l 490 817 l 408 817 m 490 1225 l 490 1389 l 572 1389 l 572 1225 l 490 1225 z "},"k":{"ha":735,"x_min":0,"x_max":735,"o":"m 0 490 l 0 572 l 81 572 l 81 490 l 0 490 m 490 490 l 490 572 l 653 572 l 653 490 l 490 490 m 653 572 l 653 653 l 735 653 l 735 572 l 653 572 m 408 572 l 408 735 l 490 735 l 490 572 l 408 572 m 81 572 l 81 653 l 0 653 l 0 735 l 81 735 l 81 817 l 163 817 l 163 572 l 81 572 m 327 735 l 327 899 l 490 899 l 490 817 l 408 817 l 408 735 l 327 735 m 490 899 l 490 1062 l 572 1062 l 572 899 l 490 899 m 163 817 l 163 980 l 245 980 l 245 1144 l 327 1144 l 327 1307 l 408 1307 l 408 1144 l 490 1144 l 490 1062 l 327 1062 l 327 899 l 245 899 l 245 817 l 163 817 m 408 1307 l 408 1470 l 490 1470 l 490 1307 l 408 1307 z "},"l":{"ha":408,"x_min":0,"x_max":408,"o":"m 81 490 l 81 572 l 327 572 l 327 490 l 81 490 m 327 572 l 327 653 l 408 653 l 408 572 l 327 572 m 0 572 l 0 817 l 81 817 l 81 572 l 0 572 m 81 817 l 81 980 l 163 980 l 163 817 l 81 817 m 163 980 l 163 1144 l 245 1144 l 245 980 l 163 980 m 245 1144 l 245 1307 l 327 1307 l 327 1144 l 245 1144 m 327 1307 l 327 1470 l 408 1470 l 408 1307 l 327 1307 z "},"m":{"ha":899,"x_min":0,"x_max":899,"o":"m 0 490 l 0 572 l 81 572 l 81 490 l 0 490 m 735 490 l 735 572 l 817 572 l 817 490 l 735 490 m 327 490 l 327 653 l 408 653 l 408 490 l 327 490 m 817 572 l 817 653 l 899 653 l 899 572 l 817 572 m 81 572 l 81 653 l 0 653 l 0 735 l 81 735 l 81 817 l 163 817 l 163 572 l 81 572 m 408 653 l 408 817 l 490 817 l 490 653 l 408 653 m 653 572 l 653 817 l 735 817 l 735 572 l 653 572 m 163 817 l 163 980 l 245 980 l 245 817 l 163 817 m 490 817 l 490 1062 l 653 1062 l 653 980 l 572 980 l 572 817 l 490 817 m 735 817 l 735 1062 l 817 1062 l 817 817 l 735 817 m 245 980 l 245 1144 l 327 1144 l 327 1062 l 408 1062 l 408 980 l 245 980 m 408 1062 l 408 1144 l 490 1144 l 490 1062 l 408 1062 m 653 1062 l 653 1144 l 735 1144 l 735 1062 l 653 1062 z "},"n":{"ha":653,"x_min":0,"x_max":653,"o":"m 0 490 l 0 572 l 81 572 l 81 490 l 0 490 m 490 490 l 490 572 l 572 572 l 572 490 l 490 490 m 572 572 l 572 653 l 653 653 l 653 572 l 572 572 m 81 572 l 81 653 l 0 653 l 0 735 l 81 735 l 81 817 l 163 817 l 163 572 l 81 572 m 408 572 l 408 817 l 490 817 l 490 572 l 408 572 m 163 817 l 163 980 l 245 980 l 245 817 l 163 817 m 490 817 l 490 1062 l 572 1062 l 572 817 l 490 817 m 245 980 l 245 1144 l 327 1144 l 327 1062 l 408 1062 l 408 980 l 245 980 m 408 1062 l 408 1144 l 490 1144 l 490 1062 l 408 1062 z "},"o":{"ha":653,"x_min":0,"x_max":653,"o":"m 163 490 l 163 572 l 327 572 l 327 490 l 163 490 m 327 572 l 327 653 l 408 653 l 408 572 l 327 572 m 490 572 l 490 653 l 653 653 l 653 572 l 490 572 m 81 572 l 81 653 l 0 653 l 0 735 l 81 735 l 81 817 l 163 817 l 163 572 l 81 572 m 408 653 l 408 817 l 490 817 l 490 653 l 408 653 m 163 817 l 163 980 l 245 980 l 245 817 l 163 817 m 245 980 l 245 1062 l 327 1062 l 327 980 l 245 980 m 490 817 l 490 1062 l 572 1062 l 572 817 l 490 817 m 327 1062 l 327 1144 l 490 1144 l 490 1062 l 327 1062 z "},"p":{"ha":817,"x_min":0,"x_max":817,"o":"m 0 81 l 0 245 l 81 245 l 81 81 l 0 81 m 81 245 l 81 408 l 163 408 l 163 245 l 81 245 m 163 408 l 163 572 l 245 572 l 245 408 l 163 408 m 327 490 l 327 572 l 490 572 l 490 490 l 327 490 m 572 490 l 572 572 l 735 572 l 735 490 l 572 490 m 490 572 l 490 653 l 572 653 l 572 572 l 490 572 m 735 572 l 735 653 l 817 653 l 817 572 l 735 572 m 0 653 l 0 735 l 81 735 l 81 653 l 0 653 m 81 735 l 81 817 l 163 817 l 163 735 l 81 735 m 245 572 l 245 817 l 327 817 l 327 572 l 245 572 m 572 653 l 572 817 l 653 817 l 653 653 l 572 653 m 163 817 l 163 899 l 245 899 l 245 817 l 163 817 m 653 817 l 653 1062 l 735 1062 l 735 817 l 653 817 m 327 817 l 327 899 l 245 899 l 245 980 l 327 980 l 327 1144 l 408 1144 l 408 1062 l 490 1062 l 490 980 l 408 980 l 408 817 l 327 817 m 490 1062 l 490 1144 l 653 1144 l 653 1062 l 490 1062 z "},"q":{"ha":653,"x_min":0,"x_max":653,"o":"m 163 81 l 163 245 l 245 245 l 245 81 l 163 81 m 245 245 l 245 408 l 327 408 l 327 245 l 245 245 m 490 490 l 490 572 l 572 572 l 572 490 l 490 490 m 572 572 l 572 653 l 653 653 l 653 572 l 572 572 m 81 572 l 81 653 l 0 653 l 0 735 l 81 735 l 81 817 l 163 817 l 163 572 l 81 572 m 327 408 l 327 490 l 163 490 l 163 572 l 327 572 l 327 653 l 408 653 l 408 817 l 490 817 l 490 572 l 408 572 l 408 408 l 327 408 m 163 817 l 163 980 l 245 980 l 245 817 l 163 817 m 245 980 l 245 1062 l 327 1062 l 327 980 l 245 980 m 490 817 l 490 1062 l 572 1062 l 572 817 l 490 817 m 327 1062 l 327 1144 l 490 1144 l 490 1062 l 327 1062 m 572 1062 l 572 1144 l 653 1144 l 653 1062 l 572 1062 z "},"r":{"ha":653,"x_min":0,"x_max":653,"o":"m 0 490 l 0 572 l 81 572 l 81 490 l 0 490 m 327 490 l 327 572 l 572 572 l 572 490 l 327 490 m 572 572 l 572 653 l 653 653 l 653 572 l 572 572 m 245 572 l 245 735 l 327 735 l 327 572 l 245 572 m 81 572 l 81 653 l 0 653 l 0 735 l 81 735 l 81 817 l 163 817 l 163 572 l 81 572 m 327 735 l 327 817 l 408 817 l 408 735 l 327 735 m 408 817 l 408 899 l 572 899 l 572 817 l 408 817 m 163 817 l 163 980 l 245 980 l 245 817 l 163 817 m 572 899 l 572 1062 l 653 1062 l 653 899 l 572 899 m 245 980 l 245 1144 l 327 1144 l 327 1062 l 408 1062 l 408 980 l 245 980 m 408 1062 l 408 1144 l 572 1144 l 572 1062 l 408 1062 z "},"s":{"ha":653,"x_min":0,"x_max":653,"o":"m 408 490 l 408 572 l 572 572 l 572 490 l 408 490 m 81 572 l 81 653 l 163 653 l 163 572 l 81 572 m 163 490 l 163 572 l 245 572 l 245 653 l 408 653 l 408 572 l 327 572 l 327 490 l 163 490 m 572 572 l 572 653 l 653 653 l 653 572 l 572 572 m 0 653 l 0 735 l 81 735 l 81 653 l 0 653 m 163 653 l 163 735 l 245 735 l 245 653 l 163 653 m 408 653 l 408 735 l 490 735 l 490 653 l 408 653 m 81 735 l 81 817 l 163 817 l 163 735 l 81 735 m 163 817 l 163 980 l 245 980 l 245 817 l 163 817 m 490 735 l 490 980 l 572 980 l 572 735 l 490 735 m 408 980 l 408 1062 l 490 1062 l 490 980 l 408 980 m 245 980 l 245 1225 l 327 1225 l 327 1144 l 408 1144 l 408 1062 l 327 1062 l 327 980 l 245 980 z "},"t":{"ha":408,"x_min":0,"x_max":408,"o":"m 163 490 l 163 572 l 327 572 l 327 490 l 163 490 m 327 572 l 327 653 l 408 653 l 408 572 l 327 572 m 81 572 l 81 653 l 0 653 l 0 735 l 81 735 l 81 899 l 163 899 l 163 572 l 81 572 m 163 899 l 163 1062 l 0 1062 l 0 1144 l 245 1144 l 245 1307 l 327 1307 l 327 1144 l 408 1144 l 408 1062 l 245 1062 l 245 899 l 163 899 z "},"u":{"ha":653,"x_min":0,"x_max":653,"o":"m 163 490 l 163 572 l 327 572 l 327 490 l 163 490 m 490 490 l 490 572 l 572 572 l 572 490 l 490 490 m 572 572 l 572 653 l 653 653 l 653 572 l 572 572 m 81 572 l 81 653 l 0 653 l 0 735 l 81 735 l 81 817 l 163 817 l 163 572 l 81 572 m 327 572 l 327 653 l 408 653 l 408 817 l 490 817 l 490 572 l 327 572 m 163 817 l 163 980 l 245 980 l 245 817 l 163 817 m 490 817 l 490 980 l 572 980 l 572 817 l 490 817 m 245 980 l 245 1144 l 327 1144 l 327 980 l 245 980 m 572 980 l 572 1144 l 653 1144 l 653 980 l 572 980 z "},"v":{"ha":572,"x_min":0,"x_max":572,"o":"m 245 653 l 245 735 l 327 735 l 327 653 l 245 653 m 327 735 l 327 817 l 408 817 l 408 735 l 327 735 m 81 490 l 81 653 l 0 653 l 0 735 l 81 735 l 81 980 l 163 980 l 163 653 l 245 653 l 245 572 l 163 572 l 163 490 l 81 490 m 408 817 l 408 980 l 490 980 l 490 817 l 408 817 m 163 980 l 163 1144 l 245 1144 l 245 980 l 163 980 m 490 980 l 490 1225 l 572 1225 l 572 980 l 490 980 m 408 1225 l 408 1307 l 490 1307 l 490 1225 l 408 1225 z "},"w":{"ha":980,"x_min":0,"x_max":980,"o":"m 163 490 l 163 572 l 327 572 l 327 490 l 163 490 m 490 490 l 490 572 l 653 572 l 653 490 l 490 490 m 817 490 l 817 572 l 899 572 l 899 490 l 817 490 m 899 572 l 899 653 l 980 653 l 980 572 l 899 572 m 81 572 l 81 653 l 0 653 l 0 735 l 81 735 l 81 817 l 163 817 l 163 572 l 81 572 m 327 572 l 327 653 l 408 653 l 408 817 l 490 817 l 490 572 l 327 572 m 653 572 l 653 653 l 735 653 l 735 817 l 817 817 l 817 572 l 653 572 m 163 817 l 163 980 l 245 980 l 245 817 l 163 817 m 490 817 l 490 980 l 572 980 l 572 817 l 490 817 m 817 817 l 817 980 l 899 980 l 899 817 l 817 817 m 245 980 l 245 1144 l 327 1144 l 327 980 l 245 980 m 572 980 l 572 1144 l 653 1144 l 653 980 l 572 980 m 899 980 l 899 1144 l 980 1144 l 980 980 l 899 980 z "},"x":{"ha":899,"x_min":0,"x_max":899,"o":"m 163 490 l 163 572 l 245 572 l 245 490 l 163 490 m 653 490 l 653 572 l 817 572 l 817 490 l 653 490 m 245 572 l 245 653 l 327 653 l 327 572 l 245 572 m 572 572 l 572 653 l 653 653 l 653 572 l 572 572 m 817 572 l 817 653 l 899 653 l 899 572 l 817 572 m 0 653 l 0 735 l 81 735 l 81 653 l 0 653 m 327 653 l 327 735 l 408 735 l 408 653 l 327 653 m 81 735 l 81 817 l 163 817 l 163 735 l 81 735 m 163 817 l 163 899 l 245 899 l 245 817 l 163 817 m 245 899 l 245 980 l 327 980 l 327 899 l 245 899 m 490 653 l 490 735 l 408 735 l 408 817 l 490 817 l 490 980 l 653 980 l 653 899 l 572 899 l 572 653 l 490 653 m 327 980 l 327 1062 l 490 1062 l 490 980 l 327 980 m 653 980 l 653 1062 l 735 1062 l 735 980 l 653 980 m 735 1062 l 735 1144 l 817 1144 l 817 1062 l 735 1062 z "},"y":{"ha":653,"x_min":0,"x_max":653,"o":"m 81 81 l 81 163 l 163 163 l 163 81 l 81 81 m 163 163 l 163 245 l 245 245 l 245 163 l 163 163 m 327 163 l 327 245 l 408 245 l 408 163 l 327 163 m 0 163 l 0 327 l 81 327 l 81 163 l 0 163 m 245 245 l 245 327 l 81 327 l 81 408 l 327 408 l 327 245 l 245 245 m 490 490 l 490 572 l 572 572 l 572 490 l 490 490 m 572 572 l 572 653 l 653 653 l 653 572 l 572 572 m 81 572 l 81 653 l 0 653 l 0 735 l 81 735 l 81 817 l 163 817 l 163 572 l 81 572 m 327 408 l 327 490 l 163 490 l 163 572 l 327 572 l 327 653 l 408 653 l 408 817 l 490 817 l 490 572 l 408 572 l 408 408 l 327 408 m 163 817 l 163 980 l 245 980 l 245 817 l 163 817 m 490 817 l 490 980 l 572 980 l 572 817 l 490 817 m 245 980 l 245 1144 l 327 1144 l 327 980 l 245 980 m 572 980 l 572 1144 l 653 1144 l 653 980 l 572 980 z "},"z":{"ha":572,"x_min":0,"x_max":572,"o":"m 81 81 l 81 163 l 163 163 l 163 81 l 81 81 m 163 163 l 163 245 l 245 245 l 245 163 l 163 163 m 327 163 l 327 245 l 408 245 l 408 163 l 327 163 m 0 163 l 0 327 l 81 327 l 81 163 l 0 163 m 245 245 l 245 327 l 81 327 l 81 408 l 408 408 l 408 327 l 327 327 l 327 245 l 245 245 m 163 490 l 163 572 l 245 572 l 245 490 l 163 490 m 408 408 l 408 572 l 490 572 l 490 408 l 408 408 m 0 653 l 0 735 l 81 735 l 81 653 l 0 653 m 245 572 l 245 653 l 327 653 l 327 735 l 408 735 l 408 572 l 245 572 m 81 735 l 81 817 l 163 817 l 163 735 l 81 735 m 408 735 l 408 817 l 490 817 l 490 735 l 408 735 m 163 817 l 163 899 l 245 899 l 245 817 l 163 817 m 245 899 l 245 980 l 327 980 l 327 899 l 245 899 m 490 817 l 490 980 l 572 980 l 572 817 l 490 817 m 327 980 l 327 1062 l 490 1062 l 490 980 l 327 980 z "},"{":{"ha":653,"x_min":81,"x_max":572,"o":"m 490 408 l 490 490 l 572 490 l 572 408 l 490 408 m 408 490 l 408 572 l 490 572 l 490 490 l 408 490 m 327 572 l 327 817 l 408 817 l 408 572 l 327 572 m 245 817 l 245 899 l 327 899 l 327 817 l 245 817 m 81 899 l 81 980 l 245 980 l 245 899 l 81 899 m 245 980 l 245 1062 l 327 1062 l 327 980 l 245 980 m 327 1062 l 327 1225 l 408 1225 l 408 1062 l 327 1062 m 408 1225 l 408 1389 l 490 1389 l 490 1225 l 408 1225 m 490 1389 l 490 1470 l 572 1470 l 572 1389 l 490 1389 z "},"|":{"ha":408,"x_min":81,"x_max":327,"o":"m 81 408 l 81 735 l 163 735 l 163 408 l 81 408 m 163 735 l 163 1062 l 245 1062 l 245 735 l 163 735 m 245 1062 l 245 1389 l 327 1389 l 327 1062 l 245 1062 z "},"}":{"ha":653,"x_min":81,"x_max":572,"o":"m 81 408 l 81 490 l 163 490 l 163 408 l 81 408 m 163 490 l 163 653 l 245 653 l 245 490 l 163 490 m 245 653 l 245 817 l 327 817 l 327 653 l 245 653 m 327 817 l 327 899 l 408 899 l 408 817 l 327 817 m 408 899 l 408 980 l 572 980 l 572 899 l 408 899 m 327 980 l 327 1062 l 408 1062 l 408 980 l 327 980 m 245 1062 l 245 1307 l 327 1307 l 327 1062 l 245 1062 m 163 1307 l 163 1389 l 245 1389 l 245 1307 l 163 1307 m 81 1389 l 81 1470 l 163 1470 l 163 1389 l 81 1389 z "},"~":{"ha":653,"x_min":81,"x_max":572,"o":"m 81 1307 l 81 1389 l 163 1389 l 163 1307 l 81 1307 m 327 1307 l 327 1389 l 490 1389 l 490 1307 l 327 1307 m 163 1389 l 163 1470 l 327 1470 l 327 1389 l 163 1389 m 490 1389 l 490 1470 l 572 1470 l 572 1389 l 490 1389 z "}}}
